<svg xmlns="http://www.w3.org/2000/svg" width="188" height="33" fill="none"><path d="M26.85 26.68c0 3.31 2.45 6 5.48 6h18.23c1.74 0 3.14-1.54 3.14-3.44s-1.4-3.44-3.14-3.44h-13.3c-.07 0-.14-.07-.14-.16 0-.05.02-.1.05-.13l6.04-5.55a4.93 4.93 0 0 0 1.54-3.63c0-1.39-.55-2.7-1.52-3.6l-5.97-5.56a.17.17 0 0 1-.05-.13c0-.09.07-.16.15-.16h13.2c1.74 0 3.14-1.54 3.14-3.44S52.3 0 50.56 0h-23.7v8.75l7.72 7.3c.07.08.12.18.12.29 0 .1-.05.21-.12.28l-5.83 5.52a6.26 6.26 0 0 0-1.9 4.54ZM5.25 0C2.35 0 0 2.57 0 5.75V28.9c0 2.09 1.55 3.78 3.45 3.78 1.91 0 3.46-1.7 3.46-3.78V12.65c0-.08.06-.16.14-.16.06 0 .12.04.14.1l6.22 17.63a3.24 3.24 0 0 0 3 2.25c1.33 0 2.52-.89 3-2.25l6.26-17.61 1.18-3.86V0a4.2 4.2 0 0 0-3.87 2.86l-6.33 17.2a.26.26 0 0 1-.24.17c-.1 0-.2-.07-.24-.17L10.11 3.6A5.27 5.27 0 0 0 5.25 0ZM139.93 21.4a.7.7 0 0 0 0 .28c.1.45.46.79.9.79h5.43c.5 0 .92-.46.92-1.02v-.03c0-.57-.41-1.02-.92-1.02h-3.16c-.5 0-.92-.46-.92-1.02v-.8c0-.56.41-1.02.92-1.02h2.76c.51 0 .93-.46.93-1.02v-.03c0-.57-.42-1.02-.93-1.02h-2.76c-.5 0-.92-.46-.92-1.02v-.8c0-.56.41-1.01.92-1.01h3.14c.5 0 .92-.46.92-1.03v-.02c0-.57-.41-1.03-.92-1.03h-3.38a1 1 0 0 0-.98.81l-1.95 10.02ZM67.6 22.47a.9.9 0 0 1-.79-.47.67.67 0 0 1-.05-.47l1.96-10.1c.1-.49.6-.84.88-.43.05.07.08.14.11.22l2.7 7.28a.1.1 0 0 0 .1.07.1.1 0 0 0 .08-.07l2.71-7.28a.93.93 0 0 1 .86-.64h1.26c.51 0 .93.46.93 1.03v9.84c0 .56-.42 1.02-.93 1.02h-.36c-.5 0-.92-.46-.92-1.02v-6.66c0-.03-.03-.06-.06-.06a.05.05 0 0 0-.05.04l-2.54 7a.93.93 0 0 1-.86.64h-.25a.93.93 0 0 1-.86-.64l-2.54-7.03a.05.05 0 0 0-.05-.04c-.03 0-.05.03-.05.06v6.69c0 .56-.42 1.02-.93 1.02h-.36ZM104.03 13.72c.22.39.57.7.98.7h.56c.56 0 1-.55.78-1.12a4.5 4.5 0 0 0-4.33-2.88c-2.85 0-5.04 2.26-5.04 6.12 0 3.76 2.05 6.1 5.09 6.1 2.72 0 4.66-1.9 4.66-5.03v-.48c0-.56-.42-1.02-.93-1.02h-2.72c-.48 0-.86.42-.86.94 0 .53.38.95.86.95h.5c.53 0 .97.5.76 1.02-.34.87-1.13 1.39-2.26 1.39-1.71 0-2.8-1.41-2.8-3.9 0-2.47 1.13-3.87 2.78-3.87.9 0 1.58.4 1.97 1.08Z" fill="#fff"/><path fill-rule="evenodd" clip-rule="evenodd" d="M85.47 21.76a.94.94 0 0 1-.88.7h-.47c-.63 0-1.08-.68-.87-1.35l3.08-9.84a.94.94 0 0 1 .87-.69h1.62c.4 0 .75.28.87.7l3.08 9.83c.2.67-.24 1.36-.88 1.36h-.47a.94.94 0 0 1-.88-.7l-.38-1.3a.94.94 0 0 0-.88-.71h-2.54c-.4 0-.76.28-.88.7l-.39 1.3Zm1.57-5.3c-.2.66.25 1.34.88 1.34h.18c.63 0 1.08-.68.89-1.34l-.92-3.12a.06.06 0 0 0-.06-.04.06.06 0 0 0-.05.04l-.92 3.12Z" fill="#fff"/><path d="M112.98 10.58c.5 0 .92.46.92 1.03v9.84c0 .56-.41 1.02-.92 1.02h-.43c-.51 0-.92-.46-.92-1.02V11.6c0-.57.4-1.03.92-1.03h.43ZM127.42 14.74c.56 0 1-.54.82-1.12a4.42 4.42 0 0 0-4.45-3.2c-2.85 0-5.02 2.22-5.02 6.1 0 3.88 2.14 6.11 5.02 6.11a4.54 4.54 0 0 0 4.42-3.1.84.84 0 0 0-.79-1.12h-.48c-.45 0-.81.37-1.03.8-.4.77-1.15 1.2-2.08 1.2-1.64 0-2.75-1.34-2.75-3.88 0-2.48 1.1-3.89 2.76-3.89.96 0 1.7.47 2.08 1.27.22.45.58.83 1.04.83h.46Z" fill="#fff"/><path fill-rule="evenodd" clip-rule="evenodd" d="M155.98 22.47c3.28 0 5.27-2.24 5.27-5.96 0-3.7-1.99-5.93-5.24-5.93h-2.93c-.5 0-.92.46-.92 1.03v9.84c0 .56.41 1.02.92 1.02h2.9Zm-.62-2.15c-.51 0-.92-.46-.92-1.03v-5.53c0-.57.41-1.02.92-1.02h.53c2.02 0 3.09 1.13 3.09 3.77 0 2.66-1.07 3.8-3.1 3.8h-.52Z" fill="#fff"/><path d="M167.05 22.47c-.51 0-.93-.46-.93-1.02V11.6c0-.57.42-1.03.93-1.03h5.4c.52 0 .93.46.93 1.03v.02c0 .57-.41 1.03-.92 1.03h-3.14c-.5 0-.92.45-.92 1.02v.79c0 .56.41 1.02.92 1.02h2.76c.51 0 .93.45.93 1.02v.03c0 .56-.42 1.02-.93 1.02h-2.76c-.5 0-.92.46-.92 1.02v.8c0 .56.41 1.02.92 1.02h3.16c.5 0 .92.45.92 1.02v.03c0 .56-.41 1.02-.92 1.02h-5.43ZM187.39 11.6c0-.56-.41-1.02-.93-1.02h-.41c-.51 0-.93.46-.93 1.03v6.38c0 .04-.03.07-.06.07a.06.06 0 0 1-.05-.03l-4.36-7a.9.9 0 0 0-.76-.45h-.59c-.5 0-.92.46-.92 1.03v9.84c0 .56.41 1.02.92 1.02h.43c.51 0 .93-.46.93-1.02v-6.4c0-.04.02-.06.05-.06.01 0 .03 0 .04.02l4.4 7.02a.9.9 0 0 0 .76.44h.55c.51 0 .93-.46.93-1.02V11.6Z" fill="#fff"/></svg>