<svg xmlns="http://www.w3.org/2000/svg" width="792" height="96" fill="none"><g clip-path="url(#a)"><path d="M233.53 38.4H175.8V19.2h72.68V0h-72.81a19.07 19.07 0 0 0-19.07 19.07v19.46a19.07 19.07 0 0 0 19.07 19.07h57.73v19.2h-75.43V96h75.56a19.06 19.06 0 0 0 19.07-19.07V57.47a19.07 19.07 0 0 0-19.07-19.07ZM345.33 0H287.4a19.05 19.05 0 0 0-19.06 19.07v57.86A19.06 19.06 0 0 0 287.4 96h57.94a19.07 19.07 0 0 0 19.07-19.07V19.07A19.07 19.07 0 0 0 345.33 0Zm-.13 76.8h-57.6V19.2h57.6v57.6ZM548.13 0h-56.5a19.06 19.06 0 0 0-19.07 19.07V96h19.2V64.45H548V96h19.2V19.07A19.04 19.04 0 0 0 548.13 0ZM548 45.25h-56.24V19.2H548v26.05ZM772.93 0h-56.49a19.07 19.07 0 0 0-19.1 19.07V96h19.2V64.45h56.26V96H792V19.07A19.07 19.07 0 0 0 772.93 0Zm-.13 45.25h-56.23V19.2h56.23v26.05ZM661.08 76.8h-7.68L625.88 8a12.7 12.7 0 0 0-11.8-8h-17.1a12.7 12.7 0 0 0-12.7 12.7V96h19.2V19.2h7.68l27.5 68.8a12.68 12.68 0 0 0 11.8 8h17.09a12.7 12.7 0 0 0 12.7-12.7V0h-19.2l.03 76.8ZM400.61 0h-19.2v76.93A19.07 19.07 0 0 0 400.48 96h57.73V76.8h-57.6V0Z" fill="#fff"/><path fill-rule="evenodd" clip-rule="evenodd" d="M20.32 73.2a3.73 3.73 0 0 1 2.67-1.2h83.78a1.84 1.84 0 0 1 1.34 3.08L90.35 94.8a3.73 3.73 0 0 1-2.67 1.2H3.84a1.84 1.84 0 0 1-1.33-3.08L20.32 73.2Zm87.87-16.35a1.84 1.84 0 0 1-1.34 3.08L23.04 60a3.73 3.73 0 0 1-2.67-1.2L2.48 39.15a1.84 1.84 0 0 1 1.33-3.08L87.63 36a3.73 3.73 0 0 1 2.66 1.2l17.9 19.65ZM20.32 1.2A3.73 3.73 0 0 1 22.99 0l83.84.07a1.84 1.84 0 0 1 1.33 3.08L90.35 22.8a3.73 3.73 0 0 1-2.67 1.2H3.84a1.84 1.84 0 0 1-1.33-3.08L20.32 1.2Z" fill="url(#b)"/></g><defs><linearGradient id="b" x1="5.24" y1="98.09" x2="105.43" y2="-2.09" gradientUnits="userSpaceOnUse"><stop stop-color="#9945FF"/><stop offset=".14" stop-color="#8A53F4"/><stop offset=".42" stop-color="#6377D6"/><stop offset=".79" stop-color="#24B0A7"/><stop offset=".99" stop-color="#00D18C"/><stop offset="1" stop-color="#00D18C"/></linearGradient><clipPath id="a"><path fill="#fff" d="M0 0h792v96H0z"/></clipPath></defs></svg>